<mxfile host="app.diagrams.net" modified="2023-09-22T22:30:16.055Z" agent="Mozilla/5.0 (X11; Linux x86_64; rv:109.0) Gecko/20100101 Firefox/117.0" etag="PoVHytPOPTeEI1QQBnpy" version="21.8.1" type="device">
  <diagram name="Page-1" id="9oDwhHapX-pNFomIDjBo">
    <mxGraphModel dx="2049" dy="1117" grid="1" gridSize="10" guides="1" tooltips="1" connect="1" arrows="1" fold="1" page="1" pageScale="1" pageWidth="1100" pageHeight="850" math="0" shadow="0">
      <root>
        <mxCell id="0" />
        <mxCell id="1" parent="0" />
        <mxCell id="8jVGtVfk1l5ar9U9b9y5-1" value="AWS Cloud" style="points=[[0,0],[0.25,0],[0.5,0],[0.75,0],[1,0],[1,0.25],[1,0.5],[1,0.75],[1,1],[0.75,1],[0.5,1],[0.25,1],[0,1],[0,0.75],[0,0.5],[0,0.25]];outlineConnect=0;gradientColor=none;html=1;whiteSpace=wrap;fontSize=12;fontStyle=0;container=1;pointerEvents=0;collapsible=0;recursiveResize=0;shape=mxgraph.aws4.group;grIcon=mxgraph.aws4.group_aws_cloud_alt;strokeColor=#232F3E;fillColor=none;verticalAlign=top;align=left;spacingLeft=30;fontColor=#232F3E;dashed=0;" vertex="1" parent="1">
          <mxGeometry x="40" y="40" width="1020" height="770" as="geometry" />
        </mxCell>
        <mxCell id="8jVGtVfk1l5ar9U9b9y5-3" value="eu-south-2 (SPAIN)" style="points=[[0,0],[0.25,0],[0.5,0],[0.75,0],[1,0],[1,0.25],[1,0.5],[1,0.75],[1,1],[0.75,1],[0.5,1],[0.25,1],[0,1],[0,0.75],[0,0.5],[0,0.25]];outlineConnect=0;gradientColor=none;html=1;whiteSpace=wrap;fontSize=12;fontStyle=0;container=1;pointerEvents=0;collapsible=0;recursiveResize=0;shape=mxgraph.aws4.group;grIcon=mxgraph.aws4.group_region;strokeColor=#147EBA;fillColor=none;verticalAlign=top;align=left;spacingLeft=30;fontColor=#147EBA;dashed=1;" vertex="1" parent="8jVGtVfk1l5ar9U9b9y5-1">
          <mxGeometry x="40" y="40" width="940" height="690" as="geometry" />
        </mxCell>
        <mxCell id="8jVGtVfk1l5ar9U9b9y5-4" value="az1(a)" style="fillColor=none;strokeColor=#147EBA;dashed=1;verticalAlign=top;fontStyle=0;fontColor=#147EBA;whiteSpace=wrap;html=1;" vertex="1" parent="8jVGtVfk1l5ar9U9b9y5-3">
          <mxGeometry x="70" y="40" width="240" height="610" as="geometry" />
        </mxCell>
        <mxCell id="8jVGtVfk1l5ar9U9b9y5-5" value="az2(b)" style="fillColor=none;strokeColor=#147EBA;dashed=1;verticalAlign=top;fontStyle=0;fontColor=#147EBA;whiteSpace=wrap;html=1;" vertex="1" parent="8jVGtVfk1l5ar9U9b9y5-3">
          <mxGeometry x="350" y="40" width="240" height="610" as="geometry" />
        </mxCell>
        <mxCell id="8jVGtVfk1l5ar9U9b9y5-6" value="az3(c)" style="fillColor=none;strokeColor=#147EBA;dashed=1;verticalAlign=top;fontStyle=0;fontColor=#147EBA;whiteSpace=wrap;html=1;" vertex="1" parent="8jVGtVfk1l5ar9U9b9y5-3">
          <mxGeometry x="630" y="40" width="240" height="610" as="geometry" />
        </mxCell>
        <mxCell id="8jVGtVfk1l5ar9U9b9y5-7" value="&lt;b&gt;VPC&lt;/b&gt;" style="points=[[0,0],[0.25,0],[0.5,0],[0.75,0],[1,0],[1,0.25],[1,0.5],[1,0.75],[1,1],[0.75,1],[0.5,1],[0.25,1],[0,1],[0,0.75],[0,0.5],[0,0.25]];outlineConnect=0;gradientColor=none;html=1;whiteSpace=wrap;fontSize=12;fontStyle=0;container=1;pointerEvents=0;collapsible=0;recursiveResize=0;shape=mxgraph.aws4.group;grIcon=mxgraph.aws4.group_vpc;strokeColor=#248814;fillColor=none;verticalAlign=top;align=left;spacingLeft=30;fontColor=#AAB7B8;dashed=0;" vertex="1" parent="8jVGtVfk1l5ar9U9b9y5-3">
          <mxGeometry x="40" y="80" width="860" height="540" as="geometry" />
        </mxCell>
        <mxCell id="8jVGtVfk1l5ar9U9b9y5-8" value="Public subnet" style="points=[[0,0],[0.25,0],[0.5,0],[0.75,0],[1,0],[1,0.25],[1,0.5],[1,0.75],[1,1],[0.75,1],[0.5,1],[0.25,1],[0,1],[0,0.75],[0,0.5],[0,0.25]];outlineConnect=0;gradientColor=none;html=1;whiteSpace=wrap;fontSize=12;fontStyle=0;container=1;pointerEvents=0;collapsible=0;recursiveResize=0;shape=mxgraph.aws4.group;grIcon=mxgraph.aws4.group_security_group;grStroke=0;strokeColor=#248814;fillColor=#E9F3E6;verticalAlign=top;align=left;spacingLeft=30;fontColor=#248814;dashed=0;" vertex="1" parent="8jVGtVfk1l5ar9U9b9y5-7">
          <mxGeometry x="80" y="40" width="140" height="450" as="geometry" />
        </mxCell>
        <mxCell id="8jVGtVfk1l5ar9U9b9y5-9" value="Public subnet" style="points=[[0,0],[0.25,0],[0.5,0],[0.75,0],[1,0],[1,0.25],[1,0.5],[1,0.75],[1,1],[0.75,1],[0.5,1],[0.25,1],[0,1],[0,0.75],[0,0.5],[0,0.25]];outlineConnect=0;gradientColor=none;html=1;whiteSpace=wrap;fontSize=12;fontStyle=0;container=1;pointerEvents=0;collapsible=0;recursiveResize=0;shape=mxgraph.aws4.group;grIcon=mxgraph.aws4.group_security_group;grStroke=0;strokeColor=#248814;fillColor=#E9F3E6;verticalAlign=top;align=left;spacingLeft=30;fontColor=#248814;dashed=0;" vertex="1" parent="8jVGtVfk1l5ar9U9b9y5-7">
          <mxGeometry x="360" y="40" width="140" height="450" as="geometry" />
        </mxCell>
        <mxCell id="8jVGtVfk1l5ar9U9b9y5-16" value="" style="shape=flexArrow;endArrow=classic;startArrow=classic;html=1;rounded=0;entryX=0.52;entryY=1.032;entryDx=0;entryDy=0;entryPerimeter=0;" edge="1" parent="8jVGtVfk1l5ar9U9b9y5-9">
          <mxGeometry width="100" height="100" relative="1" as="geometry">
            <mxPoint x="69.99950209521529" y="479.9955096730398" as="sourcePoint" />
            <mxPoint x="70.94999999999999" y="293.84999999999985" as="targetPoint" />
          </mxGeometry>
        </mxCell>
        <mxCell id="8jVGtVfk1l5ar9U9b9y5-10" value="Public subnet" style="points=[[0,0],[0.25,0],[0.5,0],[0.75,0],[1,0],[1,0.25],[1,0.5],[1,0.75],[1,1],[0.75,1],[0.5,1],[0.25,1],[0,1],[0,0.75],[0,0.5],[0,0.25]];outlineConnect=0;gradientColor=none;html=1;whiteSpace=wrap;fontSize=12;fontStyle=0;container=1;pointerEvents=0;collapsible=0;recursiveResize=0;shape=mxgraph.aws4.group;grIcon=mxgraph.aws4.group_security_group;grStroke=0;strokeColor=#248814;fillColor=#E9F3E6;verticalAlign=top;align=left;spacingLeft=30;fontColor=#248814;dashed=0;" vertex="1" parent="8jVGtVfk1l5ar9U9b9y5-7">
          <mxGeometry x="640" y="40" width="140" height="450" as="geometry" />
        </mxCell>
        <mxCell id="8jVGtVfk1l5ar9U9b9y5-11" value="Security group" style="fillColor=none;strokeColor=#DD3522;verticalAlign=top;fontStyle=0;fontColor=#DD3522;whiteSpace=wrap;html=1;" vertex="1" parent="8jVGtVfk1l5ar9U9b9y5-7">
          <mxGeometry x="55" y="200" width="750" height="130" as="geometry" />
        </mxCell>
        <mxCell id="8jVGtVfk1l5ar9U9b9y5-12" value="OpenVPN" style="sketch=0;points=[[0,0,0],[0.25,0,0],[0.5,0,0],[0.75,0,0],[1,0,0],[0,1,0],[0.25,1,0],[0.5,1,0],[0.75,1,0],[1,1,0],[0,0.25,0],[0,0.5,0],[0,0.75,0],[1,0.25,0],[1,0.5,0],[1,0.75,0]];outlineConnect=0;fontColor=#232F3E;fillColor=#ED7100;strokeColor=#ffffff;dashed=0;verticalLabelPosition=bottom;verticalAlign=top;align=center;html=1;fontSize=12;fontStyle=0;aspect=fixed;shape=mxgraph.aws4.resourceIcon;resIcon=mxgraph.aws4.ec2;" vertex="1" parent="8jVGtVfk1l5ar9U9b9y5-7">
          <mxGeometry x="391" y="226" width="78" height="78" as="geometry" />
        </mxCell>
        <mxCell id="8jVGtVfk1l5ar9U9b9y5-13" value="EIP" style="sketch=0;outlineConnect=0;fontColor=#232F3E;gradientColor=none;fillColor=#ED7100;strokeColor=none;dashed=0;verticalLabelPosition=bottom;verticalAlign=top;align=center;html=1;fontSize=12;fontStyle=0;aspect=fixed;pointerEvents=1;shape=mxgraph.aws4.elastic_ip_address;" vertex="1" parent="8jVGtVfk1l5ar9U9b9y5-7">
          <mxGeometry x="406" y="520" width="48" height="20" as="geometry" />
        </mxCell>
      </root>
    </mxGraphModel>
  </diagram>
</mxfile>
